<svg xmlns="http://www.w3.org/2000/svg" viewBox="0 0 120 120" width="100%" height="100%"><defs><style>@import url('https://fonts.googleapis.com/css2?family=Pacifico&amp;display=swap');</style><linearGradient id="v3-x" x1="0%" y1="0%" x2="100%" y2="100%"><stop offset="0%" stop-color="#EA580C"/><stop offset="100%" stop-color="#FDE047"/></linearGradient></defs><rect width="120" height="120" rx="24" fill="#111827"/><path d="M 28 30 C 20 30, 20 40, 20 50 C 20 58, 12 60, 12 60 C 12 60, 20 62, 20 70 C 20 80, 20 90, 28 90" fill="none" stroke="#F87171" stroke-width="4" stroke-linecap="round" stroke-linejoin="round"/><path d="M 92 30 C 100 30, 100 40, 100 50 C 100 58, 108 60, 108 60 C 108 60, 100 62, 100 70 C 100 80, 100 90, 92 90" fill="none" stroke="#F87171" stroke-width="4" stroke-linecap="round" stroke-linejoin="round"/><path d="M 45 32 A 28 28 0 0 1 75 32" fill="none" stroke="#4B5563" stroke-width="3" stroke-linecap="round"/><circle cx="75" cy="32" r="3.5" fill="#4B5563"/><path d="M 75 88 A 28 28 0 0 1 45 88" fill="none" stroke="#4B5563" stroke-width="3" stroke-linecap="round"/><circle cx="45" cy="88" r="3.5" fill="#4B5563"/><text x="45" y="62" fill="#F8FAFC" font-family="system-ui, -apple-system, sans-serif" font-weight="800" font-size="28" text-anchor="middle" dominant-baseline="central">P</text><text x="75" y="60" fill="#F8FAFC" font-family="system-ui, -apple-system, sans-serif" font-weight="800" font-size="22" text-anchor="middle" dominant-baseline="central">財</text><text x="94" y="92" fill="url(#v3-x)" font-family="'Pacifico', cursive" font-size="42" text-anchor="middle" dominant-baseline="central">X</text></svg>